<?xml version="1.0" encoding="UTF-8" standalone="no"?>
<!DOCTYPE svg PUBLIC "-//W3C//DTD SVG 1.1//EN" "http://www.w3.org/Graphics/SVG/1.1/DTD/svg11.dtd">
<svg width="100%" height="100%" viewBox="0 0 256 256" version="1.1" xmlns="http://www.w3.org/2000/svg" xmlns:xlink="http://www.w3.org/1999/xlink" xml:space="preserve" xmlns:serif="http://www.serif.com/" style="fill-rule:evenodd;clip-rule:evenodd;stroke-linejoin:round;stroke-miterlimit:2;">
    <g transform="matrix(1,0,0,1,0,10)">
        <path id="Color_Fill" d="M38,128L118,208L138,208L218,128L218,68L198,48L58,48L38,68L38,128Z" style="fill:rgb(219,49,49);"/>
        <g id="Pixel_Outline">
            <g transform="matrix(1,0,0,1,-22,48)">
                <rect x="120" y="140" width="20" height="20" style="fill:rgb(156,0,0);"/>
            </g>
            <g transform="matrix(1,0,0,1,-42,28)">
                <rect x="120" y="140" width="20" height="20" style="fill:rgb(156,0,0);"/>
            </g>
            <g transform="matrix(1,0,0,1,-62,8)">
                <rect x="120" y="140" width="20" height="20" style="fill:rgb(156,0,0);"/>
            </g>
            <g transform="matrix(1,0,0,1,-82,-12)">
                <rect x="120" y="140" width="20" height="20" style="fill:rgb(156,0,0);"/>
            </g>
            <g transform="matrix(1,0,0,1,-102,-32)">
                <rect x="120" y="140" width="20" height="20" style="fill:rgb(156,0,0);"/>
            </g>
            <g transform="matrix(1,0,0,1,-102,-52)">
                <rect x="120" y="140" width="20" height="20" style="fill:rgb(156,0,0);"/>
            </g>
            <g transform="matrix(1,0,0,1,-102,-72)">
                <rect x="120" y="140" width="20" height="20" style="fill:rgb(156,0,0);"/>
            </g>
            <g transform="matrix(1,0,0,1,-82,-92)">
                <rect x="120" y="140" width="20" height="20" style="fill:rgb(156,0,0);"/>
            </g>
            <g transform="matrix(1,0,0,1,-62,-112)">
                <rect x="120" y="140" width="20" height="20" style="fill:rgb(156,0,0);"/>
            </g>
            <g transform="matrix(1,0,0,1,-42,-112)">
                <rect x="120" y="140" width="20" height="20" style="fill:rgb(156,0,0);"/>
            </g>
            <g transform="matrix(1,0,0,1,-2,48)">
                <rect x="120" y="140" width="20" height="20" style="fill:rgb(156,0,0);"/>
            </g>
            <g transform="matrix(1,0,0,1,-22,-112)">
                <rect x="120" y="140" width="20" height="20" style="fill:rgb(156,0,0);"/>
            </g>
            <g transform="matrix(1,0,0,1,-2,-92)">
                <rect x="120" y="140" width="20" height="20" style="fill:rgb(156,0,0);"/>
            </g>
            <g transform="matrix(1,0,0,1,18,-112)">
                <rect x="120" y="140" width="20" height="20" style="fill:rgb(156,0,0);"/>
            </g>
            <g transform="matrix(1,0,0,1,38,-112)">
                <rect x="120" y="140" width="20" height="20" style="fill:rgb(156,0,0);"/>
            </g>
            <g transform="matrix(1,0,0,1,58,-112)">
                <rect x="120" y="140" width="20" height="20" style="fill:rgb(156,0,0);"/>
            </g>
            <g transform="matrix(1,0,0,1,78,-92)">
                <rect x="120" y="140" width="20" height="20" style="fill:rgb(156,0,0);"/>
            </g>
            <g transform="matrix(1,0,0,1,98,-72)">
                <rect x="120" y="140" width="20" height="20" style="fill:rgb(156,0,0);"/>
            </g>
            <g transform="matrix(1,0,0,1,98,-52)">
                <rect x="120" y="140" width="20" height="20" style="fill:rgb(156,0,0);"/>
            </g>
            <g transform="matrix(1,0,0,1,98,-32)">
                <rect x="120" y="140" width="20" height="20" style="fill:rgb(156,0,0);"/>
            </g>
            <g transform="matrix(1,0,0,1,78,-12)">
                <rect x="120" y="140" width="20" height="20" style="fill:rgb(156,0,0);"/>
            </g>
            <g transform="matrix(1,0,0,1,58,8)">
                <rect x="120" y="140" width="20" height="20" style="fill:rgb(156,0,0);"/>
            </g>
            <g transform="matrix(1,0,0,1,38,28)">
                <rect x="120" y="140" width="20" height="20" style="fill:rgb(156,0,0);"/>
            </g>
            <g transform="matrix(1,0,0,1,18,48)">
                <rect x="120" y="140" width="20" height="20" style="fill:rgb(156,0,0);"/>
            </g>
        </g>
        <g id="Pixel_Highlight">
            <g transform="matrix(1,0,0,1,-22,-92)">
                <rect x="120" y="140" width="20" height="20" style="fill:rgb(247,134,134);"/>
            </g>
            <g transform="matrix(1,0,0,1,-42,-92)">
                <rect x="120" y="140" width="20" height="20" style="fill:rgb(247,134,134);"/>
            </g>
            <g transform="matrix(1,0,0,1,-62,-92)">
                <rect x="120" y="140" width="20" height="20" style="fill:rgb(247,134,134);"/>
            </g>
            <g transform="matrix(1,0,0,1,-62,-72)">
                <rect x="120" y="140" width="20" height="20" style="fill:rgb(247,134,134);"/>
            </g>
            <g transform="matrix(1,0,0,1,-82,-72)">
                <rect x="120" y="140" width="20" height="20" style="fill:rgb(247,134,134);"/>
            </g>
            <g transform="matrix(1,0,0,1,-82,-52)">
                <rect x="120" y="140" width="20" height="20" style="fill:rgb(247,134,134);"/>
            </g>
            <g transform="matrix(1,0,0,1,18,-92)">
                <rect x="120" y="140" width="20" height="20" style="fill:rgb(247,134,134);"/>
            </g>
            <g transform="matrix(1,0,0,1,18,-72)">
                <rect x="120" y="140" width="20" height="20" style="fill:rgb(247,134,134);"/>
            </g>
            <g transform="matrix(1,0,0,1,38,-92)">
                <rect x="120" y="140" width="20" height="20" style="fill:rgb(247,134,134);"/>
            </g>
        </g>
        <g id="Pixel_Shadow">
            <g transform="matrix(1,0,0,1,58,-32)">
                <rect x="120" y="140" width="20" height="20" style="fill:rgb(180,42,42);"/>
            </g>
            <g transform="matrix(1,0,0,1,38,-12)">
                <rect x="120" y="140" width="20" height="20" style="fill:rgb(180,42,42);"/>
            </g>
            <g transform="matrix(1,0,0,1,18,8)">
                <rect x="120" y="140" width="20" height="20" style="fill:rgb(180,42,42);"/>
            </g>
            <g transform="matrix(1,0,0,1,-2,28)">
                <rect x="120" y="140" width="20" height="20" style="fill:rgb(180,42,42);"/>
            </g>
            <g transform="matrix(1,0,0,1,-22,28)">
                <rect x="120" y="140" width="20" height="20" style="fill:rgb(180,42,42);"/>
            </g>
            <g transform="matrix(1,0,0,1,-42,8)">
                <rect x="120" y="140" width="20" height="20" style="fill:rgb(180,42,42);"/>
            </g>
            <g transform="matrix(1,0,0,1,-62,-12)">
                <rect x="120" y="140" width="20" height="20" style="fill:rgb(180,42,42);"/>
            </g>
            <g transform="matrix(1,0,0,1,18,28)">
                <rect x="120" y="140" width="20" height="20" style="fill:rgb(180,42,42);"/>
            </g>
            <g transform="matrix(1,0,0,1,38,8)">
                <rect x="120" y="140" width="20" height="20" style="fill:rgb(180,42,42);"/>
            </g>
            <g transform="matrix(1,0,0,1,58,-12)">
                <rect x="120" y="140" width="20" height="20" style="fill:rgb(180,42,42);"/>
            </g>
            <g transform="matrix(1,0,0,1,78,-32)">
                <rect x="120" y="140" width="20" height="20" style="fill:rgb(180,42,42);"/>
            </g>
            <g transform="matrix(1,0,0,1,78,-52)">
                <rect x="120" y="140" width="20" height="20" style="fill:rgb(180,42,42);"/>
            </g>
            <g transform="matrix(1,0,0,1,78,-72)">
                <rect x="120" y="140" width="20" height="20" style="fill:rgb(180,42,42);"/>
            </g>
        </g>
    </g>
</svg>
