<?xml version="1.0" encoding="UTF-8" standalone="no"?>
<!DOCTYPE svg PUBLIC "-//W3C//DTD SVG 1.1//EN" "http://www.w3.org/Graphics/SVG/1.1/DTD/svg11.dtd">
<svg width="100%" height="100%" viewBox="0 0 256 256" version="1.1" xmlns="http://www.w3.org/2000/svg" xmlns:xlink="http://www.w3.org/1999/xlink" xml:space="preserve" xmlns:serif="http://www.serif.com/" style="fill-rule:evenodd;clip-rule:evenodd;stroke-linejoin:round;stroke-miterlimit:2;">
    <path id="Fill" d="M148,208L108,208L108,188L88,188L88,168L68,168L68,148L48,148L48,128L28,128L28,68L48,68L48,48L208,48L208,68L228,68L228,128L208,128L208,148L188,148L188,168L168,168L168,188L148,188L148,208Z" style="fill:rgb(191,0,0);"/>
    <path id="Shadow_01" d="M208,68L228,68L228,128L208,128L208,148L188,148L188,168L168,168L168,188L148,188L148,208L108,208L108,188L88,188L88,168L68,168L68,148L88,148L88,168L148,168L148,148L168,148L168,128L188,128L188,108L208,108L208,68Z" style="fill:rgb(158,12,12);"/>
    <g id="Shadow_02">
        <g transform="matrix(1,0,0,1,-12,-12)">
            <rect x="100" y="160" width="20" height="20" style="fill:rgb(173,0,0);"/>
        </g>
        <g transform="matrix(1,0,0,1,-52,-32)">
            <rect x="100" y="160" width="20" height="20" style="fill:rgb(173,0,0);"/>
        </g>
        <g transform="matrix(1,0,0,3,88,-432)">
            <rect x="100" y="160" width="20" height="20" style="fill:rgb(173,0,0);"/>
        </g>
    </g>
    <g id="Highlights">
        <g transform="matrix(1,0,0,2,-32,-52)">
            <rect x="60" y="60" width="20" height="20" style="fill:rgb(222,2,2);"/>
        </g>
        <g transform="matrix(1,0,0,1,78,-12)">
            <rect x="60" y="60" width="20" height="20" style="fill:rgb(222,2,2);"/>
        </g>
        <g transform="matrix(2.5,0,0,1,-102,-12)">
            <rect x="60" y="60" width="20" height="20" style="fill:rgb(222,2,2);"/>
        </g>
    </g>
    <g id="Outline" transform="matrix(1,0,0,1,0,8)">
        <g transform="matrix(2,0,0,1,-92,40)">
            <rect x="100" y="160" width="20" height="20" style="fill:rgb(123,0,0);"/>
        </g>
        <g transform="matrix(1,0,0,1,-52,-20)">
            <rect x="100" y="160" width="20" height="20" style="fill:rgb(123,0,0);"/>
        </g>
        <g transform="matrix(1,0,0,1,-72,-40)">
            <rect x="100" y="160" width="20" height="20" style="fill:rgb(123,0,0);"/>
        </g>
        <g transform="matrix(1,0,0,3,-92,-420)">
            <rect x="100" y="160" width="20" height="20" style="fill:rgb(123,0,0);"/>
        </g>
        <g transform="matrix(1,0,0,3,128,-420)">
            <rect x="100" y="160" width="20" height="20" style="fill:rgb(123,0,0);"/>
        </g>
        <g transform="matrix(1,0,0,1,-72,-120)">
            <rect x="100" y="160" width="20" height="20" style="fill:rgb(123,0,0);"/>
        </g>
        <g transform="matrix(1,0,0,1,18,-120)">
            <rect x="100" y="160" width="20" height="20" style="fill:rgb(123,0,0);"/>
        </g>
        <g transform="matrix(1,0,0,1,108,-40)">
            <rect x="100" y="160" width="20" height="20" style="fill:rgb(123,0,0);"/>
        </g>
        <g transform="matrix(1,0,0,1,88,-20)">
            <rect x="100" y="160" width="20" height="20" style="fill:rgb(123,0,0);"/>
        </g>
        <g transform="matrix(1,0,0,1,108,-120)">
            <rect x="100" y="160" width="20" height="20" style="fill:rgb(123,0,0);"/>
        </g>
        <g transform="matrix(3.5,0,0,1,-212,-140)">
            <rect x="100" y="160" width="20" height="20" style="fill:rgb(123,0,0);"/>
        </g>
        <g transform="matrix(3.5,0,0,1,-302,-140)">
            <rect x="100" y="160" width="20" height="20" style="fill:rgb(123,0,0);"/>
        </g>
        <g transform="matrix(1,0,0,1,-12,20)">
            <rect x="100" y="160" width="20" height="20" style="fill:rgb(123,0,0);"/>
        </g>
        <g transform="matrix(1,0,0,1,-32,0)">
            <rect x="100" y="160" width="20" height="20" style="fill:rgb(123,0,0);"/>
        </g>
        <g transform="matrix(1,0,0,1,68,0)">
            <rect x="100" y="160" width="20" height="20" style="fill:rgb(123,0,0);"/>
        </g>
        <g transform="matrix(1,0,0,1,48,20)">
            <rect x="100" y="160" width="20" height="20" style="fill:rgb(123,0,0);"/>
        </g>
    </g>
</svg>
